<svg xmlns="http://www.w3.org/2000/svg" xmlns:xlink="http://www.w3.org/1999/xlink" width="32" height="32" viewBox="0 0 32 32"><defs><linearGradient id="a"><stop offset="0" stop-color="#000092"/><stop offset="1" stop-color="#ff00f3"/></linearGradient><linearGradient id="b" x1="2" x2="28" y1="16" y2="16" gradientUnits="userSpaceOnUse" xlink:href="#a"/></defs><path fill="url(#b)" d="M 17 1 C 15.349067 1 14.000009 2.3491 14 4 C 14 4.0509471 14.013086 4.0980963 14.015625 4.1484375 L 6.546875 9.2382812 C 6.2271065 9.0889799 5.874514 9 5.5 9 C 4.1252093 9 3.0000103 10.1252 3 11.5 C 3.0000077 12.523951 3.6251282 13.407701 4.5117188 13.792969 L 3.9277344 22.072266 C 2.8274333 22.333714 2.0000088 23.322777 2 24.5 C 2.0000103 25.8748 3.1252093 27 4.5 27 C 5.1799682 27 5.7980855 26.723865 6.25 26.279297 L 10.003906 28.529297 C 10.02022 29.890361 11.135271 31 12.5 31 C 13.661279 31 14.636677 30.193195 14.914062 29.115234 L 25.367188 26.783203 C 25.80634 27.507582 26.595774 28 27.5 28 C 28.874791 28 29.99999 26.8748 30 25.5 C 29.99999 24.14592 28.907012 23.039069 27.560547 23.005859 L 26.703125 15.675781 C 27.471187 15.247855 27.999993 14.436946 28 13.5 C 27.99999 12.1252 26.874791 11 25.5 11 C 25.358933 11 25.222756 11.018268 25.087891 11.041016 L 19.892578 4.7519531 C 19.956124 4.5097334 19.999999 4.2615389 20 4 C 19.999991 2.3491 18.650933 1 17 1 z M 17 2 C 18.110495 2 18.999994 2.8895 19 4 C 18.999994 5.1105 18.110495 6 17 6 C 15.889505 6 15.000006 5.1105 15 4 C 15.000006 2.8895 15.889505 2 17 2 z M 14.253906 5.1953125 C 14.529126 5.8223466 15.017507 6.3277428 15.621094 6.6445312 L 13.267578 13.523438 C 12.569023 13.589661 11.955811 13.940394 11.542969 14.464844 L 7.8007812 12.472656 C 7.9288363 12.172756 7.9999974 11.845249 8 11.5 C 7.9999953 10.879137 7.763079 10.315363 7.3847656 9.8769531 L 14.253906 5.1953125 z M 19.421875 5.7519531 L 24.109375 11.425781 C 23.442062 11.875948 23.000006 12.639195 23 13.5 C 23.000001 13.629748 23.019754 13.75434 23.039062 13.878906 L 15.972656 15.736328 C 15.867316 14.753816 15.195092 13.944026 14.285156 13.638672 L 16.572266 6.9550781 C 16.713079 6.9755316 16.853718 7 17 7 C 17.995621 7 18.875505 6.5035472 19.421875 5.7519531 z M 5.5 10 C 6.3343532 10 6.9999937 10.6657 7 11.5 C 6.9999937 12.3344 6.3343532 13 5.5 13 C 4.6656468 13 4.0000063 12.3344 4 11.5 C 4.0000063 10.6657 4.6656468 10 5.5 10 z M 25.5 12 C 26.334353 12 26.999994 12.6657 27 13.5 C 26.999994 14.3344 26.334353 15 25.5 15 C 24.665647 15 24.000006 14.3344 24 13.5 C 24.000006 12.6657 24.665647 12 25.5 12 z M 7.2246094 13.298828 L 11.09375 15.357422 C 11.038351 15.563421 11.000002 15.777156 11 16 C 11.000007 17.016802 11.617396 17.893707 12.494141 18.283203 L 12.322266 26.017578 C 11.383433 26.085588 10.5833 26.668684 10.216797 27.492188 L 6.8085938 25.449219 C 6.9306006 25.155438 6.9999975 24.836538 7 24.5 C 6.9999908 23.272954 6.1017692 22.249806 4.9316406 22.042969 L 5.4980469 14 C 5.4980469 14 5.5 14 5.5 14 C 6.1685089 14 6.7748066 13.730263 7.2246094 13.298828 z M 13.5 14.5 C 14.334353 14.5 14.999994 15.1657 15 16 C 14.999994 16.8344 14.334353 17.5 13.5 17.5 C 12.665647 17.5 12.000006 16.8344 12 16 C 12.000006 15.1657 12.665647 14.5 13.5 14.5 z M 23.388672 14.822266 C 23.832344 15.525723 24.611598 16 25.5 16 C 25.579607 16 25.654659 15.981985 25.732422 15.974609 L 26.576172 23.183594 C 25.656093 23.553536 25.000008 24.451817 25 25.5 C 25.000001 25.614324 25.018144 25.723616 25.033203 25.833984 L 14.957031 28.080078 C 14.802731 27.179278 14.164966 26.447933 13.320312 26.150391 L 13.490234 18.5 C 13.493538 18.500013 13.496693 18.5 13.5 18.5 C 14.592933 18.5 15.517938 17.7831 15.855469 16.800781 L 23.388672 14.822266 z M 4.5 23 C 5.3343532 23 5.9999937 23.6657 6 24.5 C 5.9999937 25.3344 5.3343532 26 4.5 26 C 3.6656468 26 3.0000063 25.3344 3 24.5 C 3.0000063 23.6657 3.6656468 23 4.5 23 z M 27.5 24 C 28.334353 24 28.999994 24.6657 29 25.5 C 28.999994 26.3344 28.334353 27 27.5 27 C 26.665647 27 26.000006 26.3344 26 25.5 C 26.000006 24.6657 26.665647 24 27.5 24 z M 12.5 27 C 13.334353 27 13.999994 27.6657 14 28.5 C 13.999994 29.3344 13.334353 30 12.5 30 C 11.665647 30 11.000006 29.3344 11 28.5 C 11.000006 27.6657 11.665647 27 12.5 27 z " color="#000" font-family="sans-serif" font-weight="400" overflow="visible" white-space="normal" style="line-height:normal;text-indent:0;text-align:start;text-decoration-line:none;text-decoration-style:solid;text-decoration-color:#000;text-transform:none;block-progression:tb;isolation:auto;mix-blend-mode:normal"/></svg>