<svg xmlns="http://www.w3.org/2000/svg" xmlns:xlink="http://www.w3.org/1999/xlink" width="500" zoomAndPan="magnify" viewBox="0 0 375 374.999991" height="500" preserveAspectRatio="xMidYMid meet" version="1.0"><defs><g/></defs><path stroke-linecap="butt" transform="matrix(0.749786, 0, 0, 0.75, 43.797952, 202.240842)" fill="none" stroke-linejoin="miter" d="M -0.00143644 9.001795 L 219.066296 9.001795 " stroke="#ffffff" stroke-width="18" stroke-opacity="1" stroke-miterlimit="4"/><g fill="#ffffff" fill-opacity="1"><g transform="translate(43.797952, 188.460763)"><g><path d="M 50.625 -30.34375 L 40.78125 0 L 31.59375 0 L 25.796875 -18.46875 L 19.71875 0 L 10.53125 0 L 0.6875 -30.34375 L 9.53125 -30.34375 L 15.640625 -10.96875 L 22.0625 -30.34375 L 29.953125 -30.34375 L 36.0625 -10.796875 L 42.4375 -30.34375 Z M 50.625 -30.34375 "/></g></g></g><g fill="#ffffff" fill-opacity="1"><g transform="translate(98.878935, 188.460763)"><g><path d="M 3.03125 -30.34375 L 11.609375 -30.34375 L 11.609375 0 L 3.03125 0 Z M 3.03125 -30.34375 "/></g></g></g><g fill="#ffffff" fill-opacity="1"><g transform="translate(117.341068, 188.460763)"><g><path d="M 3.03125 -30.34375 L 11.609375 -30.34375 L 11.609375 -6.8125 L 26.09375 -6.8125 L 26.09375 0 L 3.03125 0 Z M 3.03125 -30.34375 "/></g></g></g><g fill="#ffffff" fill-opacity="1"><g transform="translate(147.547243, 188.460763)"><g><path d="M 3.03125 -30.34375 L 11.609375 -30.34375 L 11.609375 -6.8125 L 26.09375 -6.8125 L 26.09375 0 L 3.03125 0 Z M 3.03125 -30.34375 "/></g></g></g><g fill="#ffffff" fill-opacity="1"><g transform="translate(177.753417, 188.460763)"><g><path d="M 3.03125 -30.34375 L 11.609375 -30.34375 L 11.609375 0 L 3.03125 0 Z M 3.03125 -30.34375 "/></g></g></g><g fill="#ffffff" fill-opacity="1"><g transform="translate(196.215551, 188.460763)"><g><path d="M 23.359375 -5.890625 L 10.53125 -5.890625 L 8.15625 0 L -0.609375 0 L 12.78125 -30.34375 L 21.234375 -30.34375 L 34.671875 0 L 25.75 0 Z M 20.84375 -12.21875 L 16.953125 -21.9375 L 13.046875 -12.21875 Z M 20.84375 -12.21875 "/></g></g></g><g fill="#ffffff" fill-opacity="1"><g transform="translate(234.048847, 188.460763)"><g><path d="M 30.421875 0 L 30.34375 -16.078125 L 22.53125 -2.984375 L 18.71875 -2.984375 L 10.96875 -15.640625 L 10.96875 0 L 3.03125 0 L 3.03125 -30.34375 L 10.09375 -30.34375 L 20.765625 -12.828125 L 31.171875 -30.34375 L 38.234375 -30.34375 L 38.3125 0 Z M 30.421875 0 "/></g></g></g><g fill="#ffffff" fill-opacity="1"><g transform="translate(216.81689, 214.24087)"><g><path d="M 6.09375 -11.296875 C 7.5625 -11.296875 8.710938 -10.945312 9.546875 -10.25 C 10.390625 -9.550781 10.8125 -8.585938 10.8125 -7.359375 C 10.8125 -6.128906 10.390625 -5.164062 9.546875 -4.46875 C 8.710938 -3.769531 7.5625 -3.421875 6.09375 -3.421875 L 3.3125 -3.421875 L 3.3125 0 L 1.6875 0 L 1.6875 -11.296875 Z M 6.046875 -4.828125 C 7.078125 -4.828125 7.859375 -5.046875 8.390625 -5.484375 C 8.929688 -5.921875 9.203125 -6.546875 9.203125 -7.359375 C 9.203125 -8.179688 8.929688 -8.804688 8.390625 -9.234375 C 7.859375 -9.671875 7.078125 -9.890625 6.046875 -9.890625 L 3.3125 -9.890625 L 3.3125 -4.828125 Z M 6.046875 -4.828125 "/></g></g></g><g fill="#ffffff" fill-opacity="1"><g transform="translate(232.471651, 214.24087)"><g><path d="M 6.796875 0.125 C 5.648438 0.125 4.617188 -0.125 3.703125 -0.625 C 2.796875 -1.125 2.082031 -1.8125 1.5625 -2.6875 C 1.039062 -3.570312 0.78125 -4.5625 0.78125 -5.65625 C 0.78125 -6.738281 1.039062 -7.71875 1.5625 -8.59375 C 2.082031 -9.476562 2.796875 -10.171875 3.703125 -10.671875 C 4.617188 -11.171875 5.648438 -11.421875 6.796875 -11.421875 C 7.921875 -11.421875 8.941406 -11.171875 9.859375 -10.671875 C 10.773438 -10.171875 11.488281 -9.484375 12 -8.609375 C 12.519531 -7.734375 12.78125 -6.75 12.78125 -5.65625 C 12.78125 -4.550781 12.519531 -3.5625 12 -2.6875 C 11.488281 -1.8125 10.773438 -1.125 9.859375 -0.625 C 8.941406 -0.125 7.921875 0.125 6.796875 0.125 Z M 6.796875 -1.3125 C 7.617188 -1.3125 8.359375 -1.5 9.015625 -1.875 C 9.679688 -2.25 10.207031 -2.765625 10.59375 -3.421875 C 10.976562 -4.085938 11.171875 -4.832031 11.171875 -5.65625 C 11.171875 -6.46875 10.976562 -7.203125 10.59375 -7.859375 C 10.207031 -8.523438 9.679688 -9.046875 9.015625 -9.421875 C 8.359375 -9.796875 7.617188 -9.984375 6.796875 -9.984375 C 5.960938 -9.984375 5.207031 -9.796875 4.53125 -9.421875 C 3.863281 -9.046875 3.335938 -8.523438 2.953125 -7.859375 C 2.578125 -7.203125 2.390625 -6.46875 2.390625 -5.65625 C 2.390625 -4.832031 2.578125 -4.085938 2.953125 -3.421875 C 3.335938 -2.765625 3.863281 -2.25 4.53125 -1.875 C 5.207031 -1.5 5.960938 -1.3125 6.796875 -1.3125 Z M 6.796875 -1.3125 "/></g></g></g><g fill="#ffffff" fill-opacity="1"><g transform="translate(250.030538, 214.24087)"><g><path d="M 3.9375 -9.890625 L 0.0625 -9.890625 L 0.0625 -11.296875 L 9.40625 -11.296875 L 9.40625 -9.890625 L 5.53125 -9.890625 L 5.53125 0 L 3.9375 0 Z M 3.9375 -9.890625 "/></g></g></g><g fill="#ffffff" fill-opacity="1"><g transform="translate(263.506847, 214.24087)"><g><path d="M 6.796875 0.125 C 5.648438 0.125 4.617188 -0.125 3.703125 -0.625 C 2.796875 -1.125 2.082031 -1.8125 1.5625 -2.6875 C 1.039062 -3.570312 0.78125 -4.5625 0.78125 -5.65625 C 0.78125 -6.738281 1.039062 -7.71875 1.5625 -8.59375 C 2.082031 -9.476562 2.796875 -10.171875 3.703125 -10.671875 C 4.617188 -11.171875 5.648438 -11.421875 6.796875 -11.421875 C 7.921875 -11.421875 8.941406 -11.171875 9.859375 -10.671875 C 10.773438 -10.171875 11.488281 -9.484375 12 -8.609375 C 12.519531 -7.734375 12.78125 -6.75 12.78125 -5.65625 C 12.78125 -4.550781 12.519531 -3.5625 12 -2.6875 C 11.488281 -1.8125 10.773438 -1.125 9.859375 -0.625 C 8.941406 -0.125 7.921875 0.125 6.796875 0.125 Z M 6.796875 -1.3125 C 7.617188 -1.3125 8.359375 -1.5 9.015625 -1.875 C 9.679688 -2.25 10.207031 -2.765625 10.59375 -3.421875 C 10.976562 -4.085938 11.171875 -4.832031 11.171875 -5.65625 C 11.171875 -6.46875 10.976562 -7.203125 10.59375 -7.859375 C 10.207031 -8.523438 9.679688 -9.046875 9.015625 -9.421875 C 8.359375 -9.796875 7.617188 -9.984375 6.796875 -9.984375 C 5.960938 -9.984375 5.207031 -9.796875 4.53125 -9.421875 C 3.863281 -9.046875 3.335938 -8.523438 2.953125 -7.859375 C 2.578125 -7.203125 2.390625 -6.46875 2.390625 -5.65625 C 2.390625 -4.832031 2.578125 -4.085938 2.953125 -3.421875 C 3.335938 -2.765625 3.863281 -2.25 4.53125 -1.875 C 5.207031 -1.5 5.960938 -1.3125 6.796875 -1.3125 Z M 6.796875 -1.3125 "/></g></g></g><g fill="#ffffff" fill-opacity="1"><g transform="translate(281.065734, 214.24087)"><g><path d="M 6.75 0.125 C 5.613281 0.125 4.59375 -0.125 3.6875 -0.625 C 2.78125 -1.125 2.066406 -1.8125 1.546875 -2.6875 C 1.035156 -3.5625 0.78125 -4.550781 0.78125 -5.65625 C 0.78125 -6.75 1.035156 -7.734375 1.546875 -8.609375 C 2.066406 -9.484375 2.78125 -10.171875 3.6875 -10.671875 C 4.601562 -11.171875 5.628906 -11.421875 6.765625 -11.421875 C 7.648438 -11.421875 8.457031 -11.273438 9.1875 -10.984375 C 9.914062 -10.691406 10.539062 -10.253906 11.0625 -9.671875 L 10 -8.65625 C 9.15625 -9.539062 8.097656 -9.984375 6.828125 -9.984375 C 5.984375 -9.984375 5.222656 -9.796875 4.546875 -9.421875 C 3.867188 -9.046875 3.335938 -8.523438 2.953125 -7.859375 C 2.578125 -7.203125 2.390625 -6.46875 2.390625 -5.65625 C 2.390625 -4.832031 2.578125 -4.085938 2.953125 -3.421875 C 3.335938 -2.765625 3.867188 -2.25 4.546875 -1.875 C 5.222656 -1.5 5.984375 -1.3125 6.828125 -1.3125 C 8.085938 -1.3125 9.144531 -1.757812 10 -2.65625 L 11.0625 -1.640625 C 10.539062 -1.066406 9.910156 -0.628906 9.171875 -0.328125 C 8.441406 -0.0234375 7.632812 0.125 6.75 0.125 Z M 6.75 0.125 "/></g></g></g><g fill="#ffffff" fill-opacity="1"><g transform="translate(296.736631, 214.24087)"><g><path d="M 5.375 -5.015625 L 3.3125 -2.921875 L 3.3125 0 L 1.6875 0 L 1.6875 -11.296875 L 3.3125 -11.296875 L 3.3125 -4.984375 L 9.4375 -11.296875 L 11.28125 -11.296875 L 6.453125 -6.21875 L 11.59375 0 L 9.703125 0 Z M 5.375 -5.015625 "/></g></g></g><g fill="#ffffff" fill-opacity="1"><g transform="translate(312.342984, 214.24087)"><g><path d="M 1.6875 -11.296875 L 3.3125 -11.296875 L 3.3125 0 L 1.6875 0 Z M 1.6875 -11.296875 "/></g></g></g></svg>