<svg xmlns="http://www.w3.org/2000/svg" xmlns:xlink="http://www.w3.org/1999/xlink" width="32" height="32" viewBox="0 0 32 32"><defs><linearGradient id="a"><stop offset="0" stop-color="#000092"/><stop offset="1" stop-color="#ff00f3"/></linearGradient><linearGradient id="b" x1="1.499" x2="29" y1="15.917" y2="15.917" gradientUnits="userSpaceOnUse" xlink:href="#a"/></defs><path fill="url(#b)" d="M 22.384766 0.83203125 A 0.50005 0.50005 0 0 0 22.25 0.84960938 L 20.257812 1.3847656 A 0.50029236 0.50029236 0 0 0 20.515625 2.3515625 L 21.328125 2.1347656 C 17.820352 7.9234365 9.8742262 14.928868 1.9023438 16.509766 A 0.50081351 0.50081351 0 0 0 2.0976562 17.492188 C 10.505793 15.824729 18.549605 8.6855131 22.205078 2.6191406 L 22.427734 3.4511719 A 0.50028924 0.50028924 0 1 0 23.394531 3.1933594 L 22.863281 1.203125 A 0.50005 0.50005 0 0 0 22.384766 0.83203125 z M 20.5 8 C 20.22387 8 20.00003 8.2238 20 8.5 L 20 17.597656 L 20.462891 17.597656 C 20.670321 17.597656 20.84338 17.643725 21 17.703125 L 21 9 L 23 9 L 23 13.652344 L 23.708984 12.945312 L 23.539062 13.146484 C 23.665042 12.966584 23.82601 12.842547 24 12.748047 L 24 8.5 C 23.99997 8.2238 23.77613 8 23.5 8 L 20.5 8 z M 25.980469 13 C 25.808802 13 25.680652 13.081009 25.603516 13.162109 C 25.526376 13.244109 25.47993 13.333284 25.464844 13.458984 L 25.466797 13.435547 L 25.402344 13.824219 L 25.091797 13.599609 L 25.189453 13.693359 C 24.993537 13.448459 24.556246 13.43785 24.359375 13.71875 L 24.416016 13.652344 L 23.253906 14.814453 A 0.50004997 0.50004997 0 0 0 23.197266 14.880859 C 23.069672 15.063159 23.072996 15.319347 23.207031 15.498047 L 23.425781 15.800781 L 23.037109 15.865234 L 23.119141 15.855469 C 22.947474 15.855469 22.834243 15.925512 22.751953 16.007812 C 22.669663 16.090813 22.599609 16.205 22.599609 16.375 L 22.599609 18.013672 C 22.599609 18.186972 22.687439 18.319578 22.765625 18.392578 C 22.843815 18.465578 22.919628 18.503038 23.019531 18.523438 A 0.50004997 0.50004997 0 0 0 23.037109 18.523438 L 23.429688 18.589844 L 23.199219 18.912109 A 0.50004997 0.50004997 0 0 0 23.177734 18.945312 C 23.131864 19.022312 23.104012 19.101531 23.101562 19.207031 C 23.099062 19.312631 23.132552 19.464637 23.253906 19.585938 L 24.416016 20.738281 L 24.359375 20.669922 C 24.558812 20.954822 24.994366 20.946006 25.193359 20.691406 L 25.087891 20.792969 L 25.402344 20.570312 L 25.466797 20.957031 L 25.462891 20.921875 C 25.476531 21.058275 25.530141 21.151922 25.607422 21.232422 C 25.684702 21.313422 25.805501 21.392578 25.980469 21.392578 L 27.619141 21.392578 C 27.790807 21.392578 27.917369 21.311569 27.994141 21.230469 C 28.070911 21.149469 28.118692 21.0612 28.134766 20.9375 L 28.195312 20.5625 L 28.523438 20.794922 L 28.421875 20.699219 C 28.617791 20.944119 29.053129 20.952775 29.25 20.671875 L 29.195312 20.740234 L 30.347656 19.587891 A 0.50004997 0.50004997 0 0 0 30.402344 19.519531 C 30.529938 19.337231 30.526612 19.082997 30.392578 18.904297 L 30.169922 18.591797 L 30.5625 18.525391 L 30.480469 18.535156 C 30.652135 18.535156 30.765366 18.463159 30.847656 18.380859 C 30.929876 18.300959 31 18.189531 31 18.019531 L 31 16.380859 C 31 16.207559 30.91217 16.074953 30.833984 16.001953 C 30.755794 15.928953 30.679981 15.891494 30.580078 15.871094 A 0.50004997 0.50004997 0 0 0 30.560547 15.871094 L 30.177734 15.808594 L 30.402344 15.490234 A 0.50004997 0.50004997 0 0 0 30.421875 15.458984 C 30.467745 15.382984 30.495597 15.302766 30.498047 15.197266 C 30.500447 15.092166 30.467677 14.941412 30.347656 14.820312 L 29.195312 13.660156 L 29.25 13.724609 C 29.050563 13.439709 28.616962 13.448425 28.417969 13.703125 L 28.521484 13.603516 L 28.199219 13.833984 L 28.132812 13.439453 L 28.136719 13.472656 C 28.123079 13.336256 28.069898 13.242809 27.992188 13.162109 C 27.914478 13.081109 27.792441 13.003906 27.619141 13.003906 L 25.980469 13.003906 L 25.980469 13 z M 14.5 14 C 14.22387 14 14.00003 14.2238 14 14.5 L 14 19.830078 L 14.994141 18.835938 L 15 18.835938 L 15 15.003906 L 17 15.003906 L 17 17.927734 C 17.21694 17.732634 17.5115 17.603516 17.9375 17.603516 L 18 17.603516 L 18 14.505859 C 17.99997 14.229759 17.77613 14.005859 17.5 14.005859 L 14.5 14 z M 26.386719 14 L 27.212891 14 L 27.345703 14.783203 A 0.50004997 0.50004997 0 0 0 28.128906 15.107422 L 28.773438 14.646484 L 29.355469 15.234375 L 28.898438 15.884766 A 0.50004997 0.50004997 0 0 0 29.228516 16.666016 L 30 16.789062 L 30 17.613281 L 29.214844 17.744141 A 0.50004997 0.50004997 0 0 0 28.890625 18.529297 L 29.353516 19.175781 L 28.773438 19.755859 L 28.117188 19.291016 A 0.50004997 0.50004997 0 0 0 27.333984 19.619141 L 27.210938 20.400391 L 26.386719 20.400391 L 26.255859 19.625 A 0.50004997 0.50004997 0 0 0 25.472656 19.300781 L 24.833984 19.753906 L 24.248047 19.173828 L 24.708984 18.529297 A 0.50004997 0.50004997 0 0 0 24.384766 17.744141 L 23.599609 17.613281 L 23.599609 16.787109 L 24.384766 16.654297 A 0.50004997 0.50004997 0 0 0 24.707031 15.869141 L 24.248047 15.234375 L 24.833984 14.648438 L 25.46875 15.107422 A 0.50004997 0.50004997 0 0 0 26.255859 14.783203 L 26.386719 14 z M 26.802734 15.699219 C 25.978235 15.699219 25.300781 16.378525 25.300781 17.203125 C 25.300781 18.027525 25.982332 18.699219 26.802734 18.699219 C 27.623142 18.699219 28.300781 18.023325 28.300781 17.203125 C 28.300781 16.382725 27.627239 15.699219 26.802734 15.699219 z M 26.802734 16.699219 C 27.084529 16.699219 27.300781 16.917025 27.300781 17.203125 C 27.300781 17.488825 27.088627 17.699219 26.802734 17.699219 C 26.516856 17.699219 26.300781 17.484625 26.300781 17.203125 C 26.300781 16.921225 26.520954 16.699219 26.802734 16.699219 z M 8.5 18 A 0.50004997 0.50004997 0 0 0 8 18.5 L 8 30.5 A 0.50004997 0.50004997 0 0 0 8.5 31 L 11.5 31 A 0.50004997 0.50004997 0 0 0 12 30.5 L 12 18.5 A 0.50004997 0.50004997 0 0 0 11.5 18 L 8.5 18 z M 17.9375 18.599609 C 17.593353 18.599609 17.441479 18.817759 17.410156 19.068359 L 17.240234 20.074219 L 16.435547 19.494141 C 16.315369 19.395141 16.209554 19.372694 16.099609 19.371094 C 15.989665 19.371094 15.848915 19.39105 15.712891 19.53125 L 13.925781 21.316406 A 0.50004997 0.50004997 0 0 0 13.921875 21.326172 C 13.78585 21.465972 13.770884 21.605384 13.773438 21.708984 C 13.776037 21.812584 13.793428 21.902931 13.880859 22.019531 L 14.474609 22.84375 L 13.447266 23.017578 L 13.53125 23.007812 C 13.357083 23.007812 13.241451 23.078863 13.15625 23.164062 C 13.07105 23.249063 13 23.368563 13 23.539062 L 13 26.064453 C 13 26.245353 13.08115 26.366459 13.160156 26.443359 C 13.238146 26.519359 13.327427 26.571044 13.460938 26.589844 C 13.462637 26.590144 13.463044 26.589844 13.464844 26.589844 L 14.480469 26.759766 L 13.880859 27.597656 C 13.793429 27.714256 13.775989 27.806556 13.773438 27.910156 C 13.770838 28.013756 13.785848 28.153169 13.921875 28.292969 A 0.50004997 0.50004997 0 0 0 13.927734 28.302734 L 15.71875 30.078125 L 15.712891 30.068359 C 15.849458 30.208759 15.989792 30.228163 16.099609 30.226562 C 16.209427 30.226562 16.316057 30.202563 16.4375 30.101562 L 17.240234 29.53125 L 17.412109 30.535156 C 17.429369 30.664656 17.476859 30.750931 17.552734 30.832031 C 17.628604 30.913031 17.754461 31.001953 17.9375 31.001953 L 20.462891 31.001953 C 20.807038 31.001953 20.956958 30.78185 20.988281 30.53125 L 21.150391 29.519531 L 21.980469 30.105469 C 22.100647 30.204469 22.204509 30.227016 22.314453 30.228516 C 22.424397 30.228516 22.5671 30.208459 22.703125 30.068359 L 24.472656 28.298828 A 0.50004997 0.50004997 0 0 0 24.478516 28.289062 C 24.61454 28.149263 24.629505 28.00985 24.626953 27.90625 C 24.624453 27.80405 24.605953 27.714009 24.521484 27.599609 L 23.919922 26.755859 L 24.953125 26.582031 L 24.869141 26.591797 C 25.043307 26.591797 25.156986 26.520847 25.242188 26.435547 C 25.327388 26.350547 25.400391 26.231047 25.400391 26.060547 L 25.400391 23.535156 C 25.400391 23.354356 25.317281 23.23325 25.238281 23.15625 C 25.159281 23.07925 25.072036 23.027966 24.935547 23.009766 L 23.931641 22.847656 L 24.519531 22.013672 C 24.605691 21.898072 24.624415 21.808078 24.626953 21.705078 C 24.629553 21.601478 24.614543 21.462066 24.478516 21.322266 A 0.50004997 0.50004997 0 0 0 24.474609 21.322266 L 22.703125 19.535156 C 22.566557 19.394756 22.424271 19.375353 22.314453 19.376953 C 22.204636 19.376953 22.099959 19.399 21.978516 19.5 L 22.007812 19.476562 L 21.160156 20.082031 L 20.988281 19.068359 C 20.971021 18.938959 20.923531 18.852484 20.847656 18.771484 C 20.771786 18.690484 20.645929 18.603516 20.462891 18.603516 L 17.972656 18.603516 A 0.50004997 0.50004997 0 0 0 17.9375 18.603516 L 17.9375 18.599609 z M 9 19 L 11 19 L 11 30 L 9 30 L 9 19 z M 18.335938 19.599609 L 20.064453 19.599609 L 20.306641 21.033203 A 0.50004997 0.50004997 0 0 0 21.089844 21.357422 L 22.269531 20.515625 L 23.488281 21.744141 L 22.654297 22.927734 A 0.50004997 0.50004997 0 0 0 22.984375 23.708984 L 24.400391 23.9375 L 24.400391 25.664062 L 22.964844 25.90625 A 0.50004997 0.50004997 0 0 0 22.640625 26.689453 L 23.486328 27.871094 L 22.269531 29.087891 L 21.072266 28.240234 A 0.50004997 0.50004997 0 0 0 20.289062 28.570312 L 20.0625 30.001953 L 18.335938 30.001953 L 18.09375 28.580078 A 0.50004997 0.50004997 0 0 0 17.310547 28.257812 L 16.142578 29.087891 L 14.916016 27.871094 L 15.757812 26.689453 A 0.50004997 0.50004997 0 0 0 15.433594 25.90625 L 14 25.664062 L 14 23.935547 L 15.433594 23.693359 A 0.50004997 0.50004997 0 0 0 15.757812 22.908203 L 14.916016 21.742188 L 16.142578 20.513672 L 17.308594 21.355469 A 0.50004997 0.50004997 0 0 0 18.09375 21.033203 L 18.335938 19.599609 z M 2.5 20 A 0.50005 0.50005 0 0 0 2 20.5 L 2 30.5 A 0.50005 0.50005 0 0 0 2.5 31 L 5.5 31 A 0.50005 0.50005 0 0 0 6 30.5 L 6 20.5 A 0.50005 0.50005 0 0 0 5.5 20 L 2.5 20 z M 3 21 L 5 21 L 5 30 L 3 30 L 3 21 z M 19.207031 22.072266 C 17.704116 22.072266 16.472656 23.303641 16.472656 24.806641 C 16.472656 26.309541 17.708284 27.525391 19.207031 27.525391 C 20.705771 27.525391 21.925781 26.305441 21.925781 24.806641 C 21.925781 23.307841 20.709966 22.072266 19.207031 22.072266 z M 19.207031 23.072266 C 20.167177 23.072266 20.925781 23.842341 20.925781 24.806641 C 20.925781 25.771041 20.171372 26.525391 19.207031 26.525391 C 18.242678 26.525391 17.472656 25.766841 17.472656 24.806641 C 17.472656 23.846341 18.246847 23.072266 19.207031 23.072266 z " color="#000" font-family="sans-serif" font-weight="400" overflow="visible" white-space="normal" style="line-height:normal;text-indent:0;text-align:start;text-decoration-line:none;text-decoration-style:solid;text-decoration-color:#000;text-transform:none;block-progression:tb;isolation:auto;mix-blend-mode:normal"/></svg>