<svg xmlns="http://www.w3.org/2000/svg" xmlns:xlink="http://www.w3.org/1999/xlink" width="32" height="32" viewBox="0 0 32 32"><defs><linearGradient id="a"><stop offset="0" stop-color="#000092"/><stop offset="1" stop-color="#ff00f3"/></linearGradient><linearGradient id="b" x1="3.004" x2="27" y1="16.468" y2="16.468" gradientUnits="userSpaceOnUse" xlink:href="#a"/></defs><path fill="url(#b)" d="M 13.324219 1.0253906 L 13.041016 1.0429688 L 12.996094 1.0429688 L 12.287109 1.1386719 L 12.419922 2.1289062 L 13.107422 2.0371094 L 13.369141 2.0234375 L 13.324219 1.0253906 z M 15.40625 1.0957031 L 15.277344 2.0917969 L 15.730469 2.1503906 L 16.21875 2.2578125 L 16.431641 1.2792969 L 15.919922 1.1679688 L 15.876953 1.1582031 L 15.40625 1.0957031 z M 10.228516 1.6699219 L 9.4179688 2 L 9.3789062 2.0195312 L 9.2695312 2.0761719 L 9.7265625 2.9667969 L 9.8222656 2.9179688 L 10.609375 2.59375 L 10.228516 1.6699219 z M 18.412109 1.9238281 L 18.035156 2.8496094 L 18.140625 2.8925781 L 18.892578 3.2734375 L 19.345703 2.3828125 L 18.59375 2 L 18.556641 1.9824219 L 18.412109 1.9238281 z M 14 2.9101562 C 9.0373396 2.9101562 5 6.9157563 5 11.847656 C 5 14.546856 6.3693218 16.359941 7.6347656 18.244141 C 8.1748794 19.04835 8.697073 19.874424 9.125 20.802734 L 8.640625 21.609375 L 8.7050781 21.648438 L 8.7421875 21.667969 L 9.5722656 22.074219 L 9.6015625 22.015625 C 9.9080024 22.976096 10.099609 24.059507 10.099609 25.347656 L 10.099609 29.410156 A 0.50005006 0.50005006 0 0 0 10.599609 29.910156 L 17.400391 29.910156 A 0.50005006 0.50005006 0 0 0 17.900391 29.410156 L 17.900391 25.347656 C 17.900391 24.027152 18.103665 22.923432 18.423828 21.945312 L 18.480469 22.058594 L 18.730469 21.935547 L 18.554688 21.578125 C 19.021257 20.317547 19.679823 19.264695 20.365234 18.244141 C 21.630678 16.359941 23 14.546856 23 11.847656 C 23 6.9156562 18.962653 2.9101562 14 2.9101562 z M 7.4882812 3.1484375 L 7.0703125 3.4589844 L 7.0390625 3.4863281 L 6.6796875 3.8046875 L 7.34375 4.5527344 L 7.6875 4.2480469 L 8.0859375 3.9492188 L 7.4882812 3.1484375 z M 21.091797 3.5917969 L 20.429688 4.3417969 L 20.921875 4.7734375 L 21.132812 4.9921875 L 21.853516 4.2988281 L 21.630859 4.0683594 L 21.601562 4.0410156 L 21.091797 3.5917969 z M 14 3.9101562 C 18.426187 3.9101562 22 7.4600562 22 11.847656 C 22 14.211056 20.819713 15.772847 19.535156 17.685547 C 18.323143 19.490147 17.133785 21.675256 16.994141 24.847656 L 14.5 24.847656 L 14.5 19.382812 A 0.50005006 0.50005006 0 1 0 13.5 19.382812 L 13.5 24.847656 L 11.005859 24.847656 C 10.866215 21.675256 9.6768573 19.490147 8.4648438 17.685547 C 7.1802873 15.772847 6 14.211056 6 11.847656 C 6 7.4601562 9.5738206 3.9101562 14 3.9101562 z M 5.2636719 5.328125 L 5.1601562 5.4550781 L 5.1367188 5.4882812 L 4.6679688 6.1816406 L 5.4980469 6.7421875 L 5.9570312 6.0605469 L 5.9648438 6.0488281 L 6.0429688 5.9550781 L 5.2636719 5.328125 z M 13 5.9101562 A 0.50004997 0.50004997 0 0 0 12.5 6.4101562 L 12.5 7.2011719 C 12.234038 7.2851719 11.976784 7.3904781 11.728516 7.5175781 L 11.171875 6.9609375 A 0.50004997 0.50004997 0 0 0 10.464844 6.9609375 L 9.0507812 8.375 A 0.50004997 0.50004997 0 0 0 9.0507812 9.0820312 L 9.609375 9.640625 C 9.4814789 9.888625 9.3738469 10.144256 9.2890625 10.410156 L 8.5 10.410156 A 0.50004997 0.50004997 0 0 0 8 10.910156 L 8 12.910156 A 0.50004997 0.50004997 0 0 0 8.5 13.410156 L 9.2910156 13.410156 C 9.3751506 13.676356 9.4800909 13.933141 9.6074219 14.181641 L 9.0507812 14.738281 A 0.50004997 0.50004997 0 0 0 9.0507812 15.445312 L 10.464844 16.859375 A 0.50004997 0.50004997 0 0 0 11.171875 16.859375 L 11.730469 16.300781 C 11.97856 16.428681 12.234068 16.536294 12.5 16.621094 L 12.5 17.410156 A 0.50004997 0.50004997 0 0 0 13 17.910156 L 15 17.910156 A 0.50004997 0.50004997 0 0 0 15.5 17.410156 L 15.5 16.619141 C 15.76624 16.535141 16.022982 16.430034 16.271484 16.302734 L 16.828125 16.859375 A 0.50004997 0.50004997 0 0 0 17.535156 16.859375 L 18.949219 15.445312 A 0.50004997 0.50004997 0 0 0 18.949219 14.738281 L 18.390625 14.179688 C 18.518524 13.931587 18.626156 13.676056 18.710938 13.410156 L 19.5 13.410156 A 0.50004997 0.50004997 0 0 0 20 12.910156 L 20 10.910156 A 0.50004997 0.50004997 0 0 0 19.5 10.410156 L 18.708984 10.410156 C 18.624844 10.143956 18.519906 9.8871719 18.392578 9.6386719 L 18.949219 9.0820312 A 0.50004997 0.50004997 0 0 0 18.949219 8.375 L 17.535156 6.9609375 A 0.50004997 0.50004997 0 0 0 16.828125 6.9609375 L 16.269531 7.5195312 C 16.02144 7.3916312 15.765932 7.2840187 15.5 7.1992188 L 15.5 6.4101562 A 0.50004997 0.50004997 0 0 0 15 5.9101562 L 13 5.9101562 z M 23.164062 5.9140625 L 22.337891 6.4765625 L 22.513672 6.7363281 L 22.830078 7.296875 L 23.701172 6.8066406 L 23.373047 6.2246094 L 23.351562 6.1894531 L 23.164062 5.9140625 z M 13.5 6.9101562 L 14.5 6.9101562 L 14.5 7.5273438 A 0.50004997 0.50004997 0 0 0 14.888672 8.015625 C 15.327155 8.115625 15.746055 8.2882437 16.126953 8.5273438 A 0.50004997 0.50004997 0 0 0 16.746094 8.4570312 L 17.181641 8.0214844 L 17.888672 8.7285156 L 17.455078 9.1621094 A 0.50004997 0.50004997 0 0 0 17.384766 9.78125 C 17.622815 10.16285 17.7939 10.580631 17.892578 11.019531 A 0.50004997 0.50004997 0 0 0 18.380859 11.410156 L 19 11.410156 L 19 12.410156 L 18.382812 12.410156 A 0.50004997 0.50004997 0 0 0 17.894531 12.798828 C 17.794611 13.237228 17.621913 13.656209 17.382812 14.037109 A 0.50004997 0.50004997 0 0 0 17.453125 14.65625 L 17.888672 15.091797 L 17.181641 15.798828 L 16.748047 15.365234 A 0.50004997 0.50004997 0 0 0 16.128906 15.294922 C 15.747255 15.533022 15.32947 15.704034 14.890625 15.802734 A 0.50004997 0.50004997 0 0 0 14.5 16.291016 L 14.5 16.910156 L 13.5 16.910156 L 13.5 16.292969 A 0.50004997 0.50004997 0 0 0 13.111328 15.804688 C 12.672845 15.704688 12.253945 15.532069 11.873047 15.292969 A 0.50004997 0.50004997 0 0 0 11.253906 15.361328 L 10.818359 15.796875 L 10.111328 15.089844 L 10.544922 14.65625 A 0.50004997 0.50004997 0 0 0 10.615234 14.037109 C 10.377176 13.655409 10.20609 13.237728 10.107422 12.798828 A 0.50004997 0.50004997 0 0 0 9.6191406 12.408203 L 9 12.408203 L 9 11.408203 L 9.6171875 11.408203 A 0.50004997 0.50004997 0 0 0 10.105469 11.019531 C 10.205399 10.581131 10.378096 10.16215 10.617188 9.78125 A 0.50004997 0.50004997 0 0 0 10.546875 9.1621094 L 10.111328 8.7265625 L 10.818359 8.0195312 L 11.251953 8.453125 A 0.50004997 0.50004997 0 0 0 11.869141 8.5234375 C 12.250792 8.2854375 12.67053 8.114225 13.109375 8.015625 A 0.50004997 0.50004997 0 0 0 13.5 7.5292969 L 13.5 6.9101562 z M 3.7265625 8.0859375 L 3.4765625 8.8007812 L 3.4648438 8.8417969 L 3.4042969 9.078125 L 4.3730469 9.3261719 L 4.421875 9.1308594 L 4.4257812 9.1171875 L 4.6699219 8.4160156 L 3.7265625 8.0859375 z M 24.511719 8.7265625 L 23.652344 9.0292969 L 23.568359 9.0527344 L 23.570312 9.0625 L 23.568359 9.0625 L 23.578125 9.0898438 L 23.580078 9.0996094 L 23.789062 9.9101562 L 23.791016 9.9238281 L 23.796875 9.9492188 L 23.798828 9.9492188 L 23.824219 9.9394531 L 24.783203 9.7773438 L 24.775391 9.7382812 L 24.767578 9.6953125 L 24.535156 8.8007812 L 24.523438 8.7597656 L 24.511719 8.7265625 z M 14 9.4101562 C 12.627896 9.4101562 11.5 10.537856 11.5 11.910156 C 11.5 13.282256 12.627532 14.410156 14 14.410156 C 15.372468 14.410156 16.5 13.282256 16.5 11.910156 C 16.5 10.537856 15.372104 9.4101562 14 9.4101562 z M 14 10.410156 C 14.825996 10.410156 15.5 11.083956 15.5 11.910156 C 15.5 12.736056 14.825632 13.410156 14 13.410156 C 13.174368 13.410156 12.5 12.736056 12.5 11.910156 C 12.5 11.083956 13.174004 10.410156 14 10.410156 z M 3.0449219 11.126953 L 3.0058594 11.644531 L 3.0039062 11.6875 L 3.0097656 12.171875 L 4.0097656 12.160156 L 4.0039062 11.71875 L 4.0039062 11.708984 L 4.0410156 11.201172 L 3.0449219 11.126953 z M 24.005859 11.841797 L 24 12.513672 L 23.972656 12.798828 L 24.96875 12.892578 L 24.998047 12.589844 L 25 12.546875 L 25.005859 11.851562 L 24.005859 11.841797 z M 4.2207031 14.0625 L 3.2363281 14.244141 L 3.2714844 14.4375 L 3.28125 14.478516 L 3.4941406 15.251953 L 4.4589844 14.988281 L 4.2519531 14.234375 L 4.2207031 14.0625 z M 23.638672 14.681641 L 23.548828 15.015625 L 23.544922 15.029297 L 23.339844 15.589844 L 24.28125 15.931641 L 24.498047 15.328125 L 24.511719 15.289062 L 24.605469 14.941406 L 23.638672 14.681641 z M 5.1835938 16.707031 L 4.3144531 17.208984 L 4.671875 17.833984 L 4.6933594 17.867188 L 4.8535156 18.099609 L 5.6777344 17.533203 L 5.5410156 17.335938 L 5.5371094 17.326172 L 5.1835938 16.707031 z M 22.515625 17.271484 L 22.027344 17.986328 L 22.019531 17.998047 L 21.96875 18.058594 L 22.746094 18.6875 L 22.822266 18.59375 L 22.845703 18.560547 L 23.341797 17.833984 L 22.515625 17.271484 z M 6.8828125 19.017578 L 6.1640625 19.714844 L 6.421875 19.980469 L 6.453125 20.007812 L 6.9277344 20.421875 L 7.5839844 19.666016 L 7.1269531 19.269531 L 6.8828125 19.017578 z M 20.667969 19.458984 L 20.279297 19.800781 L 19.925781 20.060547 L 20.517578 20.867188 L 20.884766 20.595703 L 20.919922 20.570312 L 21.328125 20.210938 L 20.667969 19.458984 z M 23.625 20.660156 A 0.50005 0.50005 0 0 0 23.125 21.160156 L 23.125 21.671875 C 22.980818 21.720875 22.84048 21.77765 22.703125 21.84375 L 22.341797 21.484375 A 0.50005 0.50005 0 0 0 21.634766 21.484375 L 20.574219 22.544922 A 0.50005 0.50005 0 0 0 20.574219 23.251953 L 20.935547 23.613281 C 20.868807 23.750881 20.809782 23.890556 20.759766 24.035156 L 20.25 24.035156 A 0.50005 0.50005 0 0 0 19.75 24.535156 L 19.75 26.035156 A 0.50005 0.50005 0 0 0 20.25 26.535156 L 20.761719 26.535156 C 20.811219 26.679356 20.867468 26.819631 20.933594 26.957031 L 20.574219 27.318359 A 0.50005 0.50005 0 0 0 20.574219 28.025391 L 21.634766 29.085938 A 0.50005 0.50005 0 0 0 22.341797 29.085938 L 22.703125 28.724609 C 22.84075 28.791609 22.980458 28.850391 23.125 28.900391 L 23.125 29.410156 A 0.50005 0.50005 0 0 0 23.625 29.910156 L 25.125 29.910156 A 0.50005 0.50005 0 0 0 25.625 29.410156 L 25.625 28.898438 C 25.769184 28.848438 25.909518 28.792663 26.046875 28.726562 L 26.408203 29.085938 A 0.50005 0.50005 0 0 0 27.115234 29.085938 L 28.175781 28.025391 A 0.50005 0.50005 0 0 0 28.175781 27.318359 L 27.814453 26.957031 C 27.881193 26.819331 27.940221 26.679656 27.990234 26.535156 L 28.5 26.535156 A 0.50005 0.50005 0 0 0 29 26.035156 L 29 24.535156 A 0.50005 0.50005 0 0 0 28.5 24.035156 L 27.988281 24.035156 C 27.938701 23.890756 27.880712 23.750881 27.814453 23.613281 L 28.175781 23.251953 A 0.50005 0.50005 0 0 0 28.175781 22.544922 L 27.115234 21.484375 A 0.50005 0.50005 0 0 0 26.408203 21.484375 L 26.046875 21.845703 C 25.909251 21.778703 25.769543 21.720022 25.625 21.669922 L 25.625 21.160156 A 0.50005 0.50005 0 0 0 25.125 20.660156 L 23.625 20.660156 z M 24.125 21.660156 L 24.625 21.660156 L 24.625 21.998047 A 0.50005 0.50005 0 0 0 25.013672 22.486328 C 25.328835 22.558328 25.630528 22.681716 25.904297 22.853516 A 0.50005 0.50005 0 0 0 26.523438 22.783203 L 26.761719 22.544922 L 27.115234 22.898438 L 26.876953 23.134766 A 0.50005 0.50005 0 0 0 26.806641 23.753906 C 26.977751 24.028206 27.10291 24.329031 27.173828 24.644531 A 0.50005 0.50005 0 0 0 27.660156 25.035156 L 28 25.035156 L 28 25.535156 L 27.662109 25.535156 A 0.50005 0.50005 0 0 0 27.173828 25.923828 C 27.102008 26.238928 26.978499 26.540653 26.806641 26.814453 A 0.50005 0.50005 0 0 0 26.876953 27.433594 L 27.115234 27.671875 L 26.761719 28.025391 L 26.525391 27.787109 A 0.50005 0.50005 0 0 0 25.90625 27.716797 C 25.631938 27.887897 25.331051 28.011031 25.015625 28.082031 A 0.50005 0.50005 0 0 0 24.625 28.570312 L 24.625 28.910156 L 24.125 28.910156 L 24.125 28.572266 A 0.50005 0.50005 0 0 0 23.736328 28.083984 C 23.42117 28.011984 23.119478 27.888697 22.845703 27.716797 A 0.50005 0.50005 0 0 0 22.226562 27.787109 L 21.988281 28.025391 L 21.634766 27.671875 L 21.873047 27.433594 A 0.50005 0.50005 0 0 0 21.943359 26.816406 C 21.772249 26.542106 21.64709 26.241181 21.576172 25.925781 A 0.50005 0.50005 0 0 0 21.089844 25.535156 L 20.75 25.535156 L 20.75 25.035156 L 21.087891 25.035156 A 0.50005 0.50005 0 0 0 21.576172 24.646484 C 21.648002 24.331384 21.771507 24.029559 21.943359 23.755859 A 0.50005 0.50005 0 0 0 21.873047 23.136719 L 21.634766 22.898438 L 21.988281 22.544922 L 22.224609 22.78125 A 0.50005 0.50005 0 0 0 22.84375 22.853516 C 23.118059 22.682416 23.418952 22.557228 23.734375 22.486328 A 0.50005 0.50005 0 0 0 24.125 22 L 24.125 21.660156 z M 24.375 23.638672 C 23.47208 23.638672 22.728516 24.382156 22.728516 25.285156 C 22.728516 26.188056 23.471816 26.931641 24.375 26.931641 C 25.278179 26.931641 26.021484 26.188056 26.021484 25.285156 C 26.021484 24.382156 25.277914 23.638672 24.375 23.638672 z M 24.375 24.638672 C 24.731726 24.638672 25.021484 24.928356 25.021484 25.285156 C 25.021484 25.641856 24.731461 25.931641 24.375 25.931641 C 24.018524 25.931641 23.728516 25.641856 23.728516 25.285156 C 23.728516 24.928256 24.01826 24.638672 24.375 24.638672 z M 11.099609 25.847656 L 13.919922 25.847656 A 0.50005006 0.50005006 0 0 0 14.082031 25.847656 L 16.900391 25.847656 L 16.900391 28.910156 L 11.099609 28.910156 L 11.099609 27.910156 L 16 27.910156 L 16 26.910156 L 11.099609 26.910156 L 11.099609 25.847656 z M 11.449219 30.910156 A 0.50005 0.50005 0 0 0 11.5 31.910156 L 16.5 31.910156 A 0.50005 0.50005 0 1 0 16.5 30.910156 L 11.5 30.910156 A 0.50005 0.50005 0 0 0 11.449219 30.910156 z " color="#000" font-family="sans-serif" font-weight="400" overflow="visible" white-space="normal" style="line-height:normal;text-indent:0;text-align:start;text-decoration-line:none;text-decoration-style:solid;text-decoration-color:#000;text-transform:none;block-progression:tb;isolation:auto;mix-blend-mode:normal"/></svg>