<svg xmlns="http://www.w3.org/2000/svg" xmlns:xlink="http://www.w3.org/1999/xlink" width="155" zoomAndPan="magnify" viewBox="0 0 116.25 30.750001" height="41" preserveAspectRatio="xMidYMid meet" version="1.0"><defs><g/></defs><g fill="#ffffff" fill-opacity="1"><g transform="translate(2.403022, 18.756544)"><g><path d="M 13.015625 -7.796875 L 10.484375 0 L 8.125 0 L 6.625 -4.75 L 5.0625 0 L 2.703125 0 L 0.171875 -7.796875 L 2.453125 -7.796875 L 4.015625 -2.8125 L 5.671875 -7.796875 L 7.703125 -7.796875 L 9.265625 -2.78125 L 10.90625 -7.796875 Z M 13.015625 -7.796875 "/></g></g></g><g fill="#ffffff" fill-opacity="1"><g transform="translate(15.578802, 18.756544)"><g><path d="M 0.78125 -7.796875 L 2.984375 -7.796875 L 2.984375 0 L 0.78125 0 Z M 0.78125 -7.796875 "/></g></g></g><g fill="#ffffff" fill-opacity="1"><g transform="translate(19.351261, 18.756544)"><g><path d="M 0.78125 -7.796875 L 2.984375 -7.796875 L 2.984375 -1.75 L 6.703125 -1.75 L 6.703125 0 L 0.78125 0 Z M 0.78125 -7.796875 "/></g></g></g><g fill="#ffffff" fill-opacity="1"><g transform="translate(26.139463, 18.756544)"><g><path d="M 0.78125 -7.796875 L 2.984375 -7.796875 L 2.984375 -1.75 L 6.703125 -1.75 L 6.703125 0 L 0.78125 0 Z M 0.78125 -7.796875 "/></g></g></g><g fill="#ffffff" fill-opacity="1"><g transform="translate(32.927665, 18.756544)"><g><path d="M 0.78125 -7.796875 L 2.984375 -7.796875 L 2.984375 0 L 0.78125 0 Z M 0.78125 -7.796875 "/></g></g></g><g fill="#ffffff" fill-opacity="1"><g transform="translate(36.700124, 18.756544)"><g><path d="M 6 -1.515625 L 2.703125 -1.515625 L 2.09375 0 L -0.15625 0 L 3.28125 -7.796875 L 5.453125 -7.796875 L 8.90625 0 L 6.625 0 Z M 5.359375 -3.140625 L 4.359375 -5.640625 L 3.359375 -3.140625 Z M 5.359375 -3.140625 "/></g></g></g><g fill="#ffffff" fill-opacity="1"><g transform="translate(45.446887, 18.756544)"><g><path d="M 7.828125 0 L 7.796875 -4.140625 L 5.796875 -0.765625 L 4.8125 -0.765625 L 2.8125 -4.015625 L 2.8125 0 L 0.78125 0 L 0.78125 -7.796875 L 2.59375 -7.796875 L 5.34375 -3.296875 L 8.015625 -7.796875 L 9.828125 -7.796875 L 9.84375 0 Z M 7.828125 0 "/></g></g></g><g fill="#ffffff" fill-opacity="1"><g transform="translate(56.063187, 18.756544)"><g/></g></g><g fill="#ffffff" fill-opacity="1"><g transform="translate(59.301493, 18.756544)"><g><path d="M 4.34375 -7.796875 C 5.050781 -7.796875 5.664062 -7.675781 6.1875 -7.4375 C 6.707031 -7.207031 7.109375 -6.875 7.390625 -6.4375 C 7.671875 -6.007812 7.8125 -5.5 7.8125 -4.90625 C 7.8125 -4.320312 7.671875 -3.8125 7.390625 -3.375 C 7.109375 -2.945312 6.707031 -2.613281 6.1875 -2.375 C 5.664062 -2.144531 5.050781 -2.03125 4.34375 -2.03125 L 2.984375 -2.03125 L 2.984375 0 L 0.78125 0 L 0.78125 -7.796875 Z M 4.21875 -3.78125 C 4.664062 -3.78125 5.003906 -3.875 5.234375 -4.0625 C 5.460938 -4.257812 5.578125 -4.539062 5.578125 -4.90625 C 5.578125 -5.269531 5.460938 -5.550781 5.234375 -5.75 C 5.003906 -5.957031 4.664062 -6.0625 4.21875 -6.0625 L 2.984375 -6.0625 L 2.984375 -3.78125 Z M 4.21875 -3.78125 "/></g></g></g><g fill="#ffffff" fill-opacity="1"><g transform="translate(67.502969, 18.756544)"><g><path d="M 4.71875 0.15625 C 3.882812 0.15625 3.140625 -0.015625 2.484375 -0.359375 C 1.828125 -0.710938 1.3125 -1.195312 0.9375 -1.8125 C 0.5625 -2.425781 0.375 -3.125 0.375 -3.90625 C 0.375 -4.675781 0.5625 -5.367188 0.9375 -5.984375 C 1.3125 -6.597656 1.828125 -7.078125 2.484375 -7.421875 C 3.140625 -7.773438 3.882812 -7.953125 4.71875 -7.953125 C 5.539062 -7.953125 6.28125 -7.773438 6.9375 -7.421875 C 7.59375 -7.078125 8.109375 -6.597656 8.484375 -5.984375 C 8.859375 -5.367188 9.046875 -4.675781 9.046875 -3.90625 C 9.046875 -3.125 8.859375 -2.425781 8.484375 -1.8125 C 8.109375 -1.195312 7.59375 -0.710938 6.9375 -0.359375 C 6.28125 -0.015625 5.539062 0.15625 4.71875 0.15625 Z M 4.71875 -1.671875 C 5.101562 -1.671875 5.457031 -1.765625 5.78125 -1.953125 C 6.101562 -2.140625 6.351562 -2.398438 6.53125 -2.734375 C 6.71875 -3.066406 6.8125 -3.457031 6.8125 -3.90625 C 6.8125 -4.34375 6.71875 -4.726562 6.53125 -5.0625 C 6.351562 -5.394531 6.101562 -5.65625 5.78125 -5.84375 C 5.457031 -6.03125 5.101562 -6.125 4.71875 -6.125 C 4.320312 -6.125 3.960938 -6.03125 3.640625 -5.84375 C 3.316406 -5.65625 3.0625 -5.394531 2.875 -5.0625 C 2.695312 -4.726562 2.609375 -4.34375 2.609375 -3.90625 C 2.609375 -3.457031 2.695312 -3.066406 2.875 -2.734375 C 3.0625 -2.398438 3.316406 -2.140625 3.640625 -1.953125 C 3.960938 -1.765625 4.320312 -1.671875 4.71875 -1.671875 Z M 4.71875 -1.671875 "/></g></g></g><g fill="#ffffff" fill-opacity="1"><g transform="translate(76.917424, 18.756544)"><g><path d="M 2.4375 -6.046875 L 0.046875 -6.046875 L 0.046875 -7.796875 L 7.03125 -7.796875 L 7.03125 -6.046875 L 4.640625 -6.046875 L 4.640625 0 L 2.4375 0 Z M 2.4375 -6.046875 "/></g></g></g><g fill="#ffffff" fill-opacity="1"><g transform="translate(83.983828, 18.756544)"><g><path d="M 4.71875 0.15625 C 3.882812 0.15625 3.140625 -0.015625 2.484375 -0.359375 C 1.828125 -0.710938 1.3125 -1.195312 0.9375 -1.8125 C 0.5625 -2.425781 0.375 -3.125 0.375 -3.90625 C 0.375 -4.675781 0.5625 -5.367188 0.9375 -5.984375 C 1.3125 -6.597656 1.828125 -7.078125 2.484375 -7.421875 C 3.140625 -7.773438 3.882812 -7.953125 4.71875 -7.953125 C 5.539062 -7.953125 6.28125 -7.773438 6.9375 -7.421875 C 7.59375 -7.078125 8.109375 -6.597656 8.484375 -5.984375 C 8.859375 -5.367188 9.046875 -4.675781 9.046875 -3.90625 C 9.046875 -3.125 8.859375 -2.425781 8.484375 -1.8125 C 8.109375 -1.195312 7.59375 -0.710938 6.9375 -0.359375 C 6.28125 -0.015625 5.539062 0.15625 4.71875 0.15625 Z M 4.71875 -1.671875 C 5.101562 -1.671875 5.457031 -1.765625 5.78125 -1.953125 C 6.101562 -2.140625 6.351562 -2.398438 6.53125 -2.734375 C 6.71875 -3.066406 6.8125 -3.457031 6.8125 -3.90625 C 6.8125 -4.34375 6.71875 -4.726562 6.53125 -5.0625 C 6.351562 -5.394531 6.101562 -5.65625 5.78125 -5.84375 C 5.457031 -6.03125 5.101562 -6.125 4.71875 -6.125 C 4.320312 -6.125 3.960938 -6.03125 3.640625 -5.84375 C 3.316406 -5.65625 3.0625 -5.394531 2.875 -5.0625 C 2.695312 -4.726562 2.609375 -4.34375 2.609375 -3.90625 C 2.609375 -3.457031 2.695312 -3.066406 2.875 -2.734375 C 3.0625 -2.398438 3.316406 -2.140625 3.640625 -1.953125 C 3.960938 -1.765625 4.320312 -1.671875 4.71875 -1.671875 Z M 4.71875 -1.671875 "/></g></g></g><g fill="#ffffff" fill-opacity="1"><g transform="translate(93.398283, 18.756544)"><g><path d="M 4.671875 0.15625 C 3.847656 0.15625 3.113281 -0.015625 2.46875 -0.359375 C 1.820312 -0.703125 1.3125 -1.179688 0.9375 -1.796875 C 0.5625 -2.421875 0.375 -3.125 0.375 -3.90625 C 0.375 -4.675781 0.5625 -5.367188 0.9375 -5.984375 C 1.3125 -6.609375 1.820312 -7.09375 2.46875 -7.4375 C 3.113281 -7.78125 3.847656 -7.953125 4.671875 -7.953125 C 5.378906 -7.953125 6.019531 -7.828125 6.59375 -7.578125 C 7.164062 -7.328125 7.640625 -6.960938 8.015625 -6.484375 L 6.625 -5.21875 C 6.113281 -5.820312 5.5 -6.125 4.78125 -6.125 C 4.351562 -6.125 3.972656 -6.03125 3.640625 -5.84375 C 3.316406 -5.65625 3.0625 -5.394531 2.875 -5.0625 C 2.695312 -4.726562 2.609375 -4.34375 2.609375 -3.90625 C 2.609375 -3.457031 2.695312 -3.066406 2.875 -2.734375 C 3.0625 -2.398438 3.316406 -2.140625 3.640625 -1.953125 C 3.972656 -1.765625 4.351562 -1.671875 4.78125 -1.671875 C 5.5 -1.671875 6.113281 -1.972656 6.625 -2.578125 L 8.015625 -1.3125 C 7.640625 -0.84375 7.164062 -0.476562 6.59375 -0.21875 C 6.019531 0.03125 5.378906 0.15625 4.671875 0.15625 Z M 4.671875 0.15625 "/></g></g></g><g fill="#ffffff" fill-opacity="1"><g transform="translate(101.610893, 18.756544)"><g><path d="M 3.78125 -2.828125 L 2.96875 -1.953125 L 2.96875 0 L 0.78125 0 L 0.78125 -7.796875 L 2.96875 -7.796875 L 2.96875 -4.5625 L 5.984375 -7.796875 L 8.40625 -7.796875 L 5.21875 -4.34375 L 8.578125 0 L 6.015625 0 Z M 3.78125 -2.828125 "/></g></g></g><g fill="#ffffff" fill-opacity="1"><g transform="translate(109.979293, 18.756544)"><g><path d="M 0.78125 -7.796875 L 2.984375 -7.796875 L 2.984375 0 L 0.78125 0 Z M 0.78125 -7.796875 "/></g></g></g></svg>